<svg width="34" height="32" viewBox="0 0 34 32" fill="none" xmlns="http://www.w3.org/2000/svg">
<path d="M33.3367 25.79L29.801 20.02C29.6712 19.8076 29.4753 19.6419 29.2416 19.5473C29.008 19.4526 28.7496 19.4343 28.5045 19.4949L25.9496 20.1198C25.8852 19.6155 25.7905 19.1151 25.6656 18.6217L30.3414 17.0922C30.638 16.9956 30.8829 16.7874 31.0227 16.5135C31.1623 16.24 31.185 15.923 31.086 15.6328L30.104 12.7478C30.2234 12.6636 30.3379 12.5734 30.4475 12.4774C31.6615 11.1442 32.0833 9.29012 31.5617 7.57854C31.1185 5.7261 30.1561 4.03147 28.7822 2.6862C27.6462 1.57506 26.0955 0.966182 24.4902 1.00145C24.1792 1.01018 23.8846 1.13865 23.6696 1.35897C23.4549 1.57929 23.3378 1.8737 23.3436 2.17794L23.4126 5.61965L19.8896 5.64444C19.5757 5.64669 19.2756 5.77122 19.0558 5.99097C18.8362 6.21045 18.7148 6.50683 18.7191 6.8142C18.7332 8.32795 19.3541 9.77577 20.4479 10.8453C21.821 12.192 23.5517 13.1353 25.4441 13.568C25.9672 13.6818 26.5013 13.7407 27.037 13.7438C27.3377 13.7421 27.6378 13.7179 27.9345 13.6711L28.478 15.2685L24.2774 16.6431C23.6821 16.2253 22.9684 15.9999 22.2359 15.998H21.7191V14.844C21.7191 14.4318 21.4944 14.0506 21.1298 13.8447C20.7653 13.6385 20.3158 13.6385 19.9513 13.8447C19.5867 14.0506 19.362 14.4318 19.362 14.844V15.998H14.6477V14.844C14.6477 14.4318 14.423 14.0506 14.0584 13.8447C13.6938 13.6385 13.2444 13.6385 12.8798 13.8447C12.5153 14.0506 12.2906 14.4318 12.2906 14.844V15.998H11.7738C11.0412 15.9999 10.3273 16.2256 9.73198 16.6434L5.53104 15.2688L6.07458 13.6714C6.37123 13.7182 6.67134 13.7424 6.97206 13.7441C7.50782 13.741 8.04183 13.6821 8.56497 13.5683C10.4572 13.1352 12.1879 12.1926 13.5612 10.8467C14.6549 9.77641 15.2758 8.32859 15.29 6.81455C15.2943 6.50718 15.1731 6.21079 14.9533 5.99104C14.7338 5.77156 14.4334 5.64676 14.1195 5.64478L10.5964 5.61999L10.6655 2.17829C10.6712 1.87373 10.5541 1.57932 10.3395 1.35903C10.1248 1.13871 9.8299 1.01052 9.51912 1.00179C7.91582 0.976434 6.36954 1.58357 5.22839 2.68654C3.85359 4.03152 2.89055 5.72593 2.4477 7.57859C1.92575 9.2901 2.34757 11.1443 3.56182 12.4774C3.67116 12.5735 3.78597 12.6639 3.90509 12.7479L2.92305 15.6329C2.82407 15.923 2.8468 16.24 2.98664 16.5139C3.12619 16.7874 3.37135 16.9956 3.66771 17.0923L8.34369 18.6221C8.21881 19.1154 8.12386 19.6155 8.0594 20.1201L5.50456 19.4947C5.25941 19.4344 5.00131 19.4527 4.76766 19.5473C4.5343 19.642 4.33807 19.8077 4.20801 20.0198L0.672297 25.7898C0.508859 26.0523 0.459087 26.3679 0.534184 26.6665C0.609281 26.9649 0.80264 27.2218 1.07197 27.3801C1.34129 27.5385 1.66384 27.585 1.96827 27.5092C2.27269 27.4337 2.53367 27.2421 2.69337 26.9775L5.78019 21.9401L7.99229 22.4813L7.99258 22.481C8.02279 23.016 8.08666 23.5488 8.1845 24.0759H7.57623C7.35725 24.0759 7.1429 24.1356 6.95673 24.2483C6.77028 24.3607 6.61979 24.5222 6.52196 24.7138L4.16482 29.3297C4.02498 29.6036 4.00196 29.9205 4.10094 30.2107C4.19963 30.5012 4.41228 30.7412 4.69195 30.8781C4.97162 31.0151 5.29533 31.0376 5.59171 30.9407C5.88837 30.8441 6.13353 30.6358 6.27336 30.362L8.30477 26.3839H9.14149C9.81105 27.1181 10.7684 27.5379 11.7737 27.5379H22.2357C23.2408 27.5382 24.1984 27.1181 24.8676 26.3839H25.7043L27.7357 30.362C27.9242 30.7308 28.2991 30.9731 28.7194 30.9979C29.1398 31.0227 29.5415 30.8257 29.7737 30.4817C30.0056 30.1377 30.0326 29.6985 29.8442 29.3297L27.487 24.7137C27.3892 24.5222 27.2387 24.361 27.0526 24.2483C26.8664 24.1356 26.652 24.0759 26.433 24.0759H25.8248C25.9223 23.5488 25.9862 23.0163 26.0161 22.4816L28.2285 21.9404L31.3153 26.9778C31.5337 27.328 31.9253 27.5385 32.3443 27.5306C32.7633 27.5227 33.1465 27.2973 33.3505 26.9392C33.5548 26.5809 33.5493 26.1433 33.3364 25.79L33.3367 25.79Z" fill="#FFDF7F" stroke="#B12628" stroke-linejoin="round"/>
</svg>
