<svg width="376" height="95" viewBox="0 0 376 95" fill="none" xmlns="http://www.w3.org/2000/svg">
<path d="M14.3 53H5.775C5.07833 53 4.565 52.8533 4.235 52.56C3.94167 52.23 3.795 51.7167 3.795 51.02V15.38C3.795 14.6833 3.94167 14.1883 4.235 13.895C4.565 13.565 5.07833 13.4 5.775 13.4H14.3C14.9967 13.4 15.4917 13.565 15.785 13.895C16.115 14.1883 16.28 14.6833 16.28 15.38V27.315H25.465V15.38C25.465 14.6833 25.6117 14.1883 25.905 13.895C26.235 13.565 26.7483 13.4 27.445 13.4H35.97C36.6667 13.4 37.1617 13.565 37.455 13.895C37.785 14.1883 37.95 14.6833 37.95 15.38V51.02C37.95 51.7167 37.785 52.23 37.455 52.56C37.1617 52.8533 36.6667 53 35.97 53H27.445C26.7483 53 26.235 52.8533 25.905 52.56C25.6117 52.23 25.465 51.7167 25.465 51.02V38.81H16.28V51.02C16.28 51.7167 16.115 52.23 15.785 52.56C15.4917 52.8533 14.9967 53 14.3 53ZM79.0784 42.605C79.0784 44.2917 78.8217 45.8317 78.3084 47.225C77.8317 48.5817 76.9517 49.755 75.6684 50.745C74.4217 51.6983 72.6801 52.45 70.4434 53C68.2434 53.55 65.4384 53.825 62.0284 53.825C58.6184 53.825 55.7951 53.55 53.5584 53C51.3217 52.45 49.5617 51.6983 48.2784 50.745C47.0317 49.755 46.1517 48.5817 45.6384 47.225C45.1617 45.8317 44.9234 44.2917 44.9234 42.605V23.85C44.9234 22.1633 45.1617 20.6417 45.6384 19.285C46.1517 17.8917 47.0317 16.7 48.2784 15.71C49.5617 14.72 51.3217 13.95 53.5584 13.4C55.7951 12.85 58.6184 12.575 62.0284 12.575C65.4384 12.575 68.2434 12.85 70.4434 13.4C72.6801 13.95 74.4217 14.72 75.6684 15.71C76.9517 16.7 77.8317 17.8917 78.3084 19.285C78.8217 20.6417 79.0784 22.1633 79.0784 23.85V42.605ZM57.4084 40.625C57.4084 41.3583 57.6834 41.9817 58.2334 42.495C58.7834 42.9717 60.0484 43.21 62.0284 43.21C64.0084 43.21 65.2734 42.9717 65.8234 42.495C66.3734 41.9817 66.6484 41.3583 66.6484 40.625V25.83C66.6484 25.1333 66.3734 24.5467 65.8234 24.07C65.2734 23.5567 64.0084 23.3 62.0284 23.3C60.0484 23.3 58.7834 23.5567 58.2334 24.07C57.6834 24.5467 57.4084 25.1333 57.4084 25.83V40.625ZM104.512 53H95.6016C94.9049 53 94.3916 52.8533 94.0616 52.56C93.7683 52.23 93.6216 51.7167 93.6216 51.02V24.015H85.5366C84.8399 24.015 84.3266 23.8683 83.9966 23.575C83.7033 23.245 83.5566 22.7317 83.5566 22.035V15.38C83.5566 14.6833 83.7033 14.1883 83.9966 13.895C84.3266 13.565 84.8399 13.4 85.5366 13.4H114.577C115.273 13.4 115.768 13.565 116.062 13.895C116.392 14.1883 116.557 14.6833 116.557 15.38V22.035C116.557 22.7317 116.392 23.245 116.062 23.575C115.768 23.8683 115.273 24.015 114.577 24.015H106.492V51.02C106.492 51.7167 106.327 52.23 105.997 52.56C105.703 52.8533 105.208 53 104.512 53ZM144.227 53H135.702C135.005 53 134.492 52.8533 134.162 52.56C133.868 52.23 133.722 51.7167 133.722 51.02V15.38C133.722 14.6833 133.868 14.1883 134.162 13.895C134.492 13.565 135.005 13.4 135.702 13.4H152.532C157.518 13.4 160.928 14.39 162.762 16.37C164.595 18.35 165.512 20.935 165.512 24.125V31.165C165.512 34.355 164.595 36.94 162.762 38.92C160.928 40.9 157.518 41.89 152.532 41.89H146.207V51.02C146.207 51.7167 146.042 52.23 145.712 52.56C145.418 52.8533 144.923 53 144.227 53ZM146.097 23.685V31.99H151.047C152.11 31.99 152.807 31.715 153.137 31.165C153.467 30.615 153.632 29.9917 153.632 29.295V26.38C153.632 25.6833 153.467 25.06 153.137 24.51C152.807 23.96 152.11 23.685 151.047 23.685H146.097ZM204.762 42.605C204.762 44.2917 204.505 45.8317 203.992 47.225C203.515 48.5817 202.635 49.755 201.352 50.745C200.105 51.6983 198.364 52.45 196.127 53C193.927 53.55 191.122 53.825 187.712 53.825C184.302 53.825 181.479 53.55 179.242 53C177.005 52.45 175.245 51.6983 173.962 50.745C172.715 49.755 171.835 48.5817 171.322 47.225C170.845 45.8317 170.607 44.2917 170.607 42.605V23.85C170.607 22.1633 170.845 20.6417 171.322 19.285C171.835 17.8917 172.715 16.7 173.962 15.71C175.245 14.72 177.005 13.95 179.242 13.4C181.479 12.85 184.302 12.575 187.712 12.575C191.122 12.575 193.927 12.85 196.127 13.4C198.364 13.95 200.105 14.72 201.352 15.71C202.635 16.7 203.515 17.8917 203.992 19.285C204.505 20.6417 204.762 22.1633 204.762 23.85V42.605ZM183.092 40.625C183.092 41.3583 183.367 41.9817 183.917 42.495C184.467 42.9717 185.732 43.21 187.712 43.21C189.692 43.21 190.957 42.9717 191.507 42.495C192.057 41.9817 192.332 41.3583 192.332 40.625V25.83C192.332 25.1333 192.057 24.5467 191.507 24.07C190.957 23.5567 189.692 23.3 187.712 23.3C185.732 23.3 184.467 23.5567 183.917 24.07C183.367 24.5467 183.092 25.1333 183.092 25.83V40.625ZM230.195 53H221.285C220.589 53 220.075 52.8533 219.745 52.56C219.452 52.23 219.305 51.7167 219.305 51.02V24.015H211.22C210.524 24.015 210.01 23.8683 209.68 23.575C209.387 23.245 209.24 22.7317 209.24 22.035V15.38C209.24 14.6833 209.387 14.1883 209.68 13.895C210.01 13.565 210.524 13.4 211.22 13.4H240.26C240.957 13.4 241.452 13.565 241.745 13.895C242.075 14.1883 242.24 14.6833 242.24 15.38V22.035C242.24 22.7317 242.075 23.245 241.745 23.575C241.452 23.8683 240.957 24.015 240.26 24.015H232.175V51.02C232.175 51.7167 232.01 52.23 231.68 52.56C231.387 52.8533 230.892 53 230.195 53ZM269.91 53H261.385C260.689 53 260.175 52.8533 259.845 52.56C259.552 52.23 259.405 51.7167 259.405 51.02V15.38C259.405 14.6833 259.552 14.1883 259.845 13.895C260.175 13.565 260.689 13.4 261.385 13.4H269.91C270.607 13.4 271.102 13.565 271.395 13.895C271.725 14.1883 271.89 14.6833 271.89 15.38V27.315H281.075V15.38C281.075 14.6833 281.222 14.1883 281.515 13.895C281.845 13.565 282.359 13.4 283.055 13.4H291.58C292.277 13.4 292.772 13.565 293.065 13.895C293.395 14.1883 293.56 14.6833 293.56 15.38V51.02C293.56 51.7167 293.395 52.23 293.065 52.56C292.772 52.8533 292.277 53 291.58 53H283.055C282.359 53 281.845 52.8533 281.515 52.56C281.222 52.23 281.075 51.7167 281.075 51.02V38.81H271.89V51.02C271.89 51.7167 271.725 52.23 271.395 52.56C271.102 52.8533 270.607 53 269.91 53ZM334.689 42.605C334.689 44.2917 334.432 45.8317 333.919 47.225C333.442 48.5817 332.562 49.755 331.279 50.745C330.032 51.6983 328.29 52.45 326.054 53C323.854 53.55 321.049 53.825 317.639 53.825C314.229 53.825 311.405 53.55 309.169 53C306.932 52.45 305.172 51.6983 303.889 50.745C302.642 49.755 301.762 48.5817 301.249 47.225C300.772 45.8317 300.534 44.2917 300.534 42.605V23.85C300.534 22.1633 300.772 20.6417 301.249 19.285C301.762 17.8917 302.642 16.7 303.889 15.71C305.172 14.72 306.932 13.95 309.169 13.4C311.405 12.85 314.229 12.575 317.639 12.575C321.049 12.575 323.854 12.85 326.054 13.4C328.29 13.95 330.032 14.72 331.279 15.71C332.562 16.7 333.442 17.8917 333.919 19.285C334.432 20.6417 334.689 22.1633 334.689 23.85V42.605ZM313.019 40.625C313.019 41.3583 313.294 41.9817 313.844 42.495C314.394 42.9717 315.659 43.21 317.639 43.21C319.619 43.21 320.884 42.9717 321.434 42.495C321.984 41.9817 322.259 41.3583 322.259 40.625V25.83C322.259 25.1333 321.984 24.5467 321.434 24.07C320.884 23.5567 319.619 23.3 317.639 23.3C315.659 23.3 314.394 23.5567 313.844 24.07C313.294 24.5467 313.019 25.1333 313.019 25.83V40.625ZM352.196 53H343.671C342.974 53 342.461 52.8533 342.131 52.56C341.837 52.23 341.691 51.7167 341.691 51.02V15.38C341.691 14.6833 341.837 14.1883 342.131 13.895C342.461 13.565 342.974 13.4 343.671 13.4H360.501C365.487 13.4 368.897 14.39 370.731 16.37C372.564 18.35 373.481 20.935 373.481 24.125V31.165C373.481 34.355 372.564 36.94 370.731 38.92C368.897 40.9 365.487 41.89 360.501 41.89H354.176V51.02C354.176 51.7167 354.011 52.23 353.681 52.56C353.387 52.8533 352.892 53 352.196 53ZM354.066 23.685V31.99H359.016C360.079 31.99 360.776 31.715 361.106 31.165C361.436 30.615 361.601 29.9917 361.601 29.295V26.38C361.601 25.6833 361.436 25.06 361.106 24.51C360.776 23.96 360.079 23.685 359.016 23.685H354.066Z" fill="#FFDF7F"/>
<path d="M4.235 52.56L3.11389 53.5565C3.15293 53.6005 3.19453 53.6421 3.23845 53.6811L4.235 52.56ZM4.235 13.895L3.17434 12.8343L3.17434 12.8343L4.235 13.895ZM15.785 13.895L14.6639 14.8915C14.7029 14.9355 14.7445 14.9771 14.7885 15.0161L15.785 13.895ZM16.28 27.315H14.78C14.78 28.1434 15.4516 28.815 16.28 28.815V27.315ZM25.465 27.315V28.815C26.2934 28.815 26.965 28.1434 26.965 27.315H25.465ZM25.905 13.895L24.8443 12.8343L24.8443 12.8343L25.905 13.895ZM37.455 13.895L36.3339 14.8915C36.3729 14.9355 36.4145 14.9771 36.4585 15.0161L37.455 13.895ZM37.455 52.56L38.5157 53.6207L38.5157 53.6207L37.455 52.56ZM25.905 52.56L24.7839 53.5565C24.8229 53.6005 24.8645 53.6421 24.9085 53.6811L25.905 52.56ZM25.465 38.81H26.965C26.965 37.9816 26.2934 37.31 25.465 37.31V38.81ZM16.28 38.81V37.31C15.4516 37.31 14.78 37.9816 14.78 38.81H16.28ZM15.785 52.56L14.7243 51.4993L14.7243 51.4993L15.785 52.56ZM14.3 51.5H5.775V54.5H14.3V51.5ZM5.775 51.5C5.52616 51.5 5.36864 51.4732 5.27958 51.4477C5.19479 51.4235 5.19677 51.408 5.23155 51.4389L3.23845 53.6811C3.96364 54.3257 4.91299 54.5 5.775 54.5V51.5ZM5.35611 51.5635C5.38703 51.5982 5.37151 51.6002 5.34729 51.5154C5.32184 51.4264 5.295 51.2688 5.295 51.02H2.295C2.295 51.882 2.46928 52.8314 3.11389 53.5565L5.35611 51.5635ZM5.295 51.02V15.38H2.295V51.02H5.295ZM5.295 15.38C5.295 15.1291 5.32231 14.9829 5.3432 14.9124C5.36261 14.8469 5.36389 14.8874 5.29566 14.9557L3.17434 12.8343C2.46003 13.5487 2.295 14.5402 2.295 15.38H5.295ZM5.29566 14.9557C5.23176 15.0196 5.28206 14.9 5.775 14.9V11.9C4.87461 11.9 3.89824 12.1104 3.17434 12.8343L5.29566 14.9557ZM5.775 14.9H14.3V11.9H5.775V14.9ZM14.3 14.9C14.5377 14.9 14.6664 14.9291 14.7194 14.9468C14.7632 14.9614 14.7211 14.9559 14.6639 14.8915L16.9061 12.8985C16.1986 12.1024 15.181 11.9 14.3 11.9V14.9ZM14.7885 15.0161C14.7241 14.9589 14.7186 14.9168 14.7332 14.9606C14.7509 15.0136 14.78 15.1423 14.78 15.38H17.78C17.78 14.499 17.5776 13.4814 16.7815 12.7739L14.7885 15.0161ZM14.78 15.38V27.315H17.78V15.38H14.78ZM16.28 28.815H25.465V25.815H16.28V28.815ZM26.965 27.315V15.38H23.965V27.315H26.965ZM26.965 15.38C26.965 15.1291 26.9923 14.9829 27.0132 14.9124C27.0326 14.8469 27.0339 14.8874 26.9657 14.9557L24.8443 12.8343C24.13 13.5487 23.965 14.5402 23.965 15.38H26.965ZM26.9657 14.9557C26.9018 15.0196 26.9521 14.9 27.445 14.9V11.9C26.5446 11.9 25.5682 12.1104 24.8443 12.8343L26.9657 14.9557ZM27.445 14.9H35.97V11.9H27.445V14.9ZM35.97 14.9C36.2077 14.9 36.3364 14.9291 36.3894 14.9468C36.4332 14.9614 36.3911 14.9559 36.3339 14.8915L38.5761 12.8985C37.8686 12.1024 36.851 11.9 35.97 11.9V14.9ZM36.4585 15.0161C36.3941 14.9589 36.3886 14.9168 36.4032 14.9606C36.4209 15.0136 36.45 15.1423 36.45 15.38H39.45C39.45 14.499 39.2476 13.4814 38.4515 12.7739L36.4585 15.0161ZM36.45 15.38V51.02H39.45V15.38H36.45ZM36.45 51.02C36.45 51.5129 36.3304 51.5632 36.3943 51.4993L38.5157 53.6207C39.2396 52.8968 39.45 51.9204 39.45 51.02H36.45ZM36.3943 51.4993C36.4626 51.4311 36.5031 51.4324 36.4376 51.4518C36.3671 51.4727 36.2209 51.5 35.97 51.5V54.5C36.8098 54.5 37.8013 54.335 38.5157 53.6207L36.3943 51.4993ZM35.97 51.5H27.445V54.5H35.97V51.5ZM27.445 51.5C27.1962 51.5 27.0386 51.4732 26.9496 51.4477C26.8648 51.4235 26.8668 51.408 26.9015 51.4389L24.9085 53.6811C25.6336 54.3257 26.583 54.5 27.445 54.5V51.5ZM27.0261 51.5635C27.057 51.5982 27.0415 51.6002 27.0173 51.5154C26.9918 51.4264 26.965 51.2688 26.965 51.02H23.965C23.965 51.882 24.1393 52.8314 24.7839 53.5565L27.0261 51.5635ZM26.965 51.02V38.81H23.965V51.02H26.965ZM25.465 37.31H16.28V40.31H25.465V37.31ZM14.78 38.81V51.02H17.78V38.81H14.78ZM14.78 51.02C14.78 51.5129 14.6604 51.5632 14.7243 51.4993L16.8457 53.6207C17.5696 52.8968 17.78 51.9204 17.78 51.02H14.78ZM14.7243 51.4993C14.7926 51.4311 14.8331 51.4324 14.7676 51.4518C14.6971 51.4727 14.5509 51.5 14.3 51.5V54.5C15.1398 54.5 16.1313 54.335 16.8457 53.6207L14.7243 51.4993ZM78.3084 47.225L76.9009 46.7064C76.8983 46.7135 76.8957 46.7206 76.8932 46.7278L78.3084 47.225ZM75.6684 50.745L76.5796 51.9365L76.5846 51.9327L75.6684 50.745ZM70.4434 53L70.0852 51.5434L70.0796 51.5448L70.4434 53ZM53.5584 53L53.2002 54.4566L53.2002 54.4566L53.5584 53ZM48.2784 50.745L47.3456 51.9197C47.3582 51.9297 47.371 51.9395 47.3839 51.9491L48.2784 50.745ZM45.6384 47.225L44.2192 47.7105C44.2243 47.7257 44.2298 47.7408 44.2355 47.7558L45.6384 47.225ZM45.6384 19.285L44.2309 18.7664C44.2283 18.7735 44.2257 18.7806 44.2232 18.7878L45.6384 19.285ZM48.2784 15.71L47.3622 14.5223C47.3566 14.5266 47.3511 14.531 47.3456 14.5353L48.2784 15.71ZM53.5584 13.4L53.2002 11.9434L53.2002 11.9434L53.5584 13.4ZM70.4434 13.4L70.0796 14.8552L70.0852 14.8566L70.4434 13.4ZM75.6684 15.71L74.7356 16.8847C74.7411 16.889 74.7466 16.8934 74.7522 16.8977L75.6684 15.71ZM78.3084 19.285L76.8892 19.7705C76.8943 19.7857 76.8998 19.8008 76.9055 19.8158L78.3084 19.285ZM58.2334 42.495L57.2099 43.5916C57.2234 43.6041 57.2371 43.6165 57.251 43.6285L58.2334 42.495ZM65.8234 42.495L66.8058 43.6285C66.8197 43.6165 66.8334 43.6041 66.8469 43.5916L65.8234 42.495ZM65.8234 24.07L64.7999 25.1666C64.8134 25.1791 64.8271 25.1915 64.841 25.2035L65.8234 24.07ZM58.2334 24.07L59.2158 25.2035C59.2297 25.1915 59.2434 25.1791 59.2569 25.1666L58.2334 24.07ZM77.5784 42.605C77.5784 44.1385 77.3453 45.5001 76.9009 46.7064L79.7159 47.7436C80.2981 46.1632 80.5784 44.4448 80.5784 42.605H77.5784ZM76.8932 46.7278C76.5245 47.7771 75.8361 48.7212 74.7522 49.5573L76.5846 51.9327C78.0674 50.7888 79.1389 49.3862 79.7236 47.7222L76.8932 46.7278ZM74.7572 49.5535C73.7328 50.3369 72.2071 51.0216 70.0852 51.5434L70.8016 54.4566C73.153 53.8784 75.1107 53.0598 76.5796 51.9365L74.7572 49.5535ZM70.0796 51.5448C68.0421 52.0542 65.3707 52.325 62.0284 52.325V55.325C65.5061 55.325 68.4447 55.0458 70.8072 54.4552L70.0796 51.5448ZM62.0284 52.325C58.6873 52.325 55.9946 52.0544 53.9166 51.5434L53.2002 54.4566C55.5955 55.0456 58.5495 55.325 62.0284 55.325V52.325ZM53.9166 51.5434C51.7951 51.0217 50.2418 50.335 49.1729 49.5409L47.3839 51.9491C48.8816 53.0617 50.8483 53.8783 53.2002 54.4566L53.9166 51.5434ZM49.2112 49.5703C48.1552 48.7317 47.4497 47.7735 47.0413 46.6942L44.2355 47.7558C44.8538 49.3899 45.9083 50.7783 47.3456 51.9197L49.2112 49.5703ZM47.0576 46.7395C46.6416 45.5233 46.4234 44.1501 46.4234 42.605H43.4234C43.4234 44.4332 43.6819 46.14 44.2192 47.7105L47.0576 46.7395ZM46.4234 42.605V23.85H43.4234V42.605H46.4234ZM46.4234 23.85C46.4234 22.304 46.6418 20.9542 47.0536 19.7822L44.2232 18.7878C43.6816 20.3292 43.4234 22.0226 43.4234 23.85H46.4234ZM47.0459 19.8036C47.4573 18.687 48.1638 17.7164 49.2112 16.8847L47.3456 14.5353C45.8997 15.6836 44.8462 17.0963 44.2309 18.7664L47.0459 19.8036ZM49.1946 16.8977C50.2585 16.077 51.8035 15.3762 53.9166 14.8566L53.2002 11.9434C50.84 12.5238 48.865 13.363 47.3622 14.5223L49.1946 16.8977ZM53.9166 14.8566C55.9946 14.3456 58.6873 14.075 62.0284 14.075V11.075C58.5495 11.075 55.5955 11.3544 53.2002 11.9434L53.9166 14.8566ZM62.0284 14.075C65.3707 14.075 68.0421 14.3458 70.0796 14.8552L70.8072 11.9448C68.4447 11.3542 65.5061 11.075 62.0284 11.075V14.075ZM70.0852 14.8566C72.1987 15.3763 73.716 16.075 74.7356 16.8847L76.6012 14.5353C75.1275 13.365 73.1614 12.5237 70.8016 11.9434L70.0852 14.8566ZM74.7522 16.8977C75.827 17.7268 76.5172 18.6833 76.8892 19.7705L79.7276 18.7995C79.1463 17.1001 78.0764 15.6732 76.5846 14.5223L74.7522 16.8977ZM76.9055 19.8158C77.3451 20.9777 77.5784 22.3157 77.5784 23.85H80.5784C80.5784 22.011 80.2984 20.3056 79.7113 18.7542L76.9055 19.8158ZM77.5784 23.85V42.605H80.5784V23.85H77.5784ZM55.9084 40.625C55.9084 41.7861 56.3649 42.8029 57.2099 43.5916L59.2569 41.3984C59.0019 41.1604 58.9084 40.9305 58.9084 40.625H55.9084ZM57.251 43.6285C57.8275 44.1282 58.597 44.3697 59.3169 44.5053C60.0759 44.6483 60.9892 44.71 62.0284 44.71V41.71C61.0876 41.71 60.3784 41.6525 59.8724 41.5572C59.3273 41.4545 59.1893 41.3385 59.2158 41.3615L57.251 43.6285ZM62.0284 44.71C63.0676 44.71 63.9809 44.6483 64.7399 44.5053C65.4598 44.3697 66.2293 44.1282 66.8058 43.6285L64.841 41.3615C64.8675 41.3385 64.7295 41.4545 64.1844 41.5572C63.6784 41.6525 62.9692 41.71 62.0284 41.71V44.71ZM66.8469 43.5916C67.6919 42.8029 68.1484 41.7861 68.1484 40.625H65.1484C65.1484 40.9305 65.0549 41.1604 64.7999 41.3984L66.8469 43.5916ZM68.1484 40.625V25.83H65.1484V40.625H68.1484ZM68.1484 25.83C68.1484 24.6766 67.6678 23.6835 66.8058 22.9365L64.841 25.2035C65.079 25.4098 65.1484 25.5901 65.1484 25.83H68.1484ZM66.8469 22.9734C66.2713 22.4362 65.4934 22.1712 64.7604 22.0225C63.9925 21.8666 63.0716 21.8 62.0284 21.8V24.8C62.9652 24.8 63.6668 24.8617 64.1639 24.9625C64.6959 25.0705 64.8255 25.1905 64.7999 25.1666L66.8469 22.9734ZM62.0284 21.8C60.9852 21.8 60.0643 21.8666 59.2964 22.0225C58.5634 22.1712 57.7855 22.4362 57.2099 22.9734L59.2569 25.1666C59.2313 25.1905 59.3609 25.0705 59.8929 24.9625C60.39 24.8617 61.0916 24.8 62.0284 24.8V21.8ZM57.251 22.9365C56.389 23.6835 55.9084 24.6766 55.9084 25.83H58.9084C58.9084 25.5901 58.9778 25.4098 59.2158 25.2035L57.251 22.9365ZM55.9084 25.83V40.625H58.9084V25.83H55.9084ZM94.0616 52.56L92.9405 53.5565C92.9795 53.6005 93.0211 53.6421 93.0651 53.6811L94.0616 52.56ZM93.6216 24.015H95.1216C95.1216 23.1866 94.45 22.515 93.6216 22.515V24.015ZM83.9966 23.575L82.8755 24.5715C82.9145 24.6155 82.9561 24.6571 83.0001 24.6961L83.9966 23.575ZM83.9966 13.895L82.9359 12.8343L82.9359 12.8343L83.9966 13.895ZM116.062 13.895L114.94 14.8915C114.98 14.9355 115.021 14.9771 115.065 15.0161L116.062 13.895ZM106.492 24.015V22.515C105.663 22.515 104.992 23.1866 104.992 24.015H106.492ZM105.997 52.56L104.936 51.4993L104.936 51.4993L105.997 52.56ZM104.512 51.5H95.6016V54.5H104.512V51.5ZM95.6016 51.5C95.3528 51.5 95.1952 51.4732 95.1062 51.4477C95.0214 51.4235 95.0234 51.408 95.0581 51.4389L93.0651 53.6811C93.7902 54.3257 94.7396 54.5 95.6016 54.5V51.5ZM95.1827 51.5635C95.2136 51.5982 95.1981 51.6002 95.1739 51.5154C95.1484 51.4264 95.1216 51.2688 95.1216 51.02H92.1216C92.1216 51.882 92.2959 52.8314 92.9405 53.5565L95.1827 51.5635ZM95.1216 51.02V24.015H92.1216V51.02H95.1216ZM93.6216 22.515H85.5366V25.515H93.6216V22.515ZM85.5366 22.515C85.2878 22.515 85.1302 22.4882 85.0412 22.4627C84.9564 22.4385 84.9584 22.423 84.9931 22.4539L83.0001 24.6961C83.7252 25.3407 84.6746 25.515 85.5366 25.515V22.515ZM85.1177 22.5785C85.1486 22.6132 85.1331 22.6152 85.1089 22.5304C85.0834 22.4414 85.0566 22.2838 85.0566 22.035H82.0566C82.0566 22.897 82.2309 23.8464 82.8755 24.5715L85.1177 22.5785ZM85.0566 22.035V15.38H82.0566V22.035H85.0566ZM85.0566 15.38C85.0566 15.1291 85.0839 14.9829 85.1048 14.9124C85.1242 14.8469 85.1255 14.8874 85.0573 14.9557L82.9359 12.8343C82.2216 13.5487 82.0566 14.5402 82.0566 15.38H85.0566ZM85.0573 14.9557C84.9934 15.0196 85.0437 14.9 85.5366 14.9V11.9C84.6362 11.9 83.6598 12.1104 82.9359 12.8343L85.0573 14.9557ZM85.5366 14.9H114.577V11.9H85.5366V14.9ZM114.577 14.9C114.814 14.9 114.943 14.9291 114.996 14.9468C115.04 14.9614 114.998 14.9559 114.94 14.8915L117.183 12.8985C116.475 12.1024 115.458 11.9 114.577 11.9V14.9ZM115.065 15.0161C115.001 14.9589 114.995 14.9168 115.01 14.9606C115.027 15.0136 115.057 15.1423 115.057 15.38H118.057C118.057 14.499 117.854 13.4814 117.058 12.7739L115.065 15.0161ZM115.057 15.38V22.035H118.057V15.38H115.057ZM115.057 22.035C115.057 22.5279 114.937 22.5782 115.001 22.5143L117.122 24.6357C117.846 23.9118 118.057 22.9354 118.057 22.035H115.057ZM115.001 22.5143C115.069 22.4461 115.11 22.4474 115.044 22.4668C114.974 22.4877 114.827 22.515 114.577 22.515V25.515C115.416 25.515 116.408 25.35 117.122 24.6357L115.001 22.5143ZM114.577 22.515H106.492V25.515H114.577V22.515ZM104.992 24.015V51.02H107.992V24.015H104.992ZM104.992 51.02C104.992 51.5129 104.872 51.5632 104.936 51.4993L107.057 53.6207C107.781 52.8968 107.992 51.9204 107.992 51.02H104.992ZM104.936 51.4993C105.004 51.4311 105.045 51.4324 104.979 51.4518C104.909 51.4727 104.762 51.5 104.512 51.5V54.5C105.351 54.5 106.343 54.335 107.057 53.6207L104.936 51.4993ZM134.162 52.56L133.041 53.5565C133.08 53.6005 133.121 53.6421 133.165 53.6811L134.162 52.56ZM134.162 13.895L133.101 12.8343L133.101 12.8343L134.162 13.895ZM162.762 16.37L161.661 17.3891L161.661 17.3891L162.762 16.37ZM162.762 38.92L161.661 37.9009L161.661 37.9009L162.762 38.92ZM146.207 41.89V40.39C145.378 40.39 144.707 41.0616 144.707 41.89H146.207ZM145.712 52.56L144.651 51.4993L144.651 51.4993L145.712 52.56ZM146.097 23.685V22.185C145.268 22.185 144.597 22.8566 144.597 23.685H146.097ZM146.097 31.99H144.597C144.597 32.8184 145.268 33.49 146.097 33.49V31.99ZM153.137 31.165L154.423 31.9367L154.423 31.9367L153.137 31.165ZM153.137 24.51L151.851 25.2817L151.851 25.2817L153.137 24.51ZM144.227 51.5H135.702V54.5H144.227V51.5ZM135.702 51.5C135.453 51.5 135.295 51.4732 135.206 51.4477C135.122 51.4235 135.124 51.408 135.158 51.4389L133.165 53.6811C133.89 54.3257 134.84 54.5 135.702 54.5V51.5ZM135.283 51.5635C135.314 51.5982 135.298 51.6002 135.274 51.5154C135.249 51.4264 135.222 51.2688 135.222 51.02H132.222C132.222 51.882 132.396 52.8314 133.041 53.5565L135.283 51.5635ZM135.222 51.02V15.38H132.222V51.02H135.222ZM135.222 15.38C135.222 15.1291 135.249 14.9829 135.27 14.9124C135.289 14.8469 135.291 14.8874 135.222 14.9557L133.101 12.8343C132.387 13.5487 132.222 14.5402 132.222 15.38H135.222ZM135.222 14.9557C135.159 15.0196 135.209 14.9 135.702 14.9V11.9C134.801 11.9 133.825 12.1104 133.101 12.8343L135.222 14.9557ZM135.702 14.9H152.532V11.9H135.702V14.9ZM152.532 14.9C157.424 14.9 160.275 15.8917 161.661 17.3891L163.862 15.3509C161.582 12.8883 157.613 11.9 152.532 11.9V14.9ZM161.661 17.3891C163.192 19.0425 164.012 21.2397 164.012 24.125H167.012C167.012 20.6303 165.998 17.6575 163.862 15.3509L161.661 17.3891ZM164.012 24.125V31.165H167.012V24.125H164.012ZM164.012 31.165C164.012 34.0503 163.192 36.2475 161.661 37.9009L163.862 39.9391C165.998 37.6325 167.012 34.6597 167.012 31.165H164.012ZM161.661 37.9009C160.275 39.3983 157.424 40.39 152.532 40.39V43.39C157.613 43.39 161.582 42.4017 163.862 39.9391L161.661 37.9009ZM152.532 40.39H146.207V43.39H152.532V40.39ZM144.707 41.89V51.02H147.707V41.89H144.707ZM144.707 51.02C144.707 51.5129 144.587 51.5632 144.651 51.4993L146.772 53.6207C147.496 52.8968 147.707 51.9204 147.707 51.02H144.707ZM144.651 51.4993C144.719 51.4311 144.76 51.4324 144.694 51.4518C144.624 51.4727 144.478 51.5 144.227 51.5V54.5C145.067 54.5 146.058 54.335 146.772 53.6207L144.651 51.4993ZM144.597 23.685V31.99H147.597V23.685H144.597ZM146.097 33.49H151.047V30.49H146.097V33.49ZM151.047 33.49C152.279 33.49 153.678 33.1784 154.423 31.9367L151.851 30.3933C151.883 30.3394 151.911 30.3511 151.816 30.3885C151.7 30.4343 151.463 30.49 151.047 30.49V33.49ZM154.423 31.9367C154.905 31.1337 155.132 30.2393 155.132 29.295H152.132C152.132 29.744 152.029 30.0963 151.851 30.3933L154.423 31.9367ZM155.132 29.295V26.38H152.132V29.295H155.132ZM155.132 26.38C155.132 25.4357 154.905 24.5413 154.423 23.7383L151.851 25.2817C152.029 25.5787 152.132 25.931 152.132 26.38H155.132ZM154.423 23.7383C153.678 22.4966 152.279 22.185 151.047 22.185V25.185C151.463 25.185 151.7 25.2407 151.816 25.2865C151.911 25.3239 151.883 25.3356 151.851 25.2817L154.423 23.7383ZM151.047 22.185H146.097V25.185H151.047V22.185ZM203.992 47.225L202.584 46.7064C202.582 46.7135 202.579 46.7206 202.577 46.7278L203.992 47.225ZM201.352 50.745L202.263 51.9365L202.268 51.9327L201.352 50.745ZM196.127 53L195.769 51.5434L195.763 51.5448L196.127 53ZM179.242 53L178.884 54.4566L178.884 54.4566L179.242 53ZM173.962 50.745L173.029 51.9197C173.042 51.9297 173.055 51.9395 173.068 51.9491L173.962 50.745ZM171.322 47.225L169.903 47.7105C169.908 47.7257 169.913 47.7408 169.919 47.7558L171.322 47.225ZM171.322 19.285L169.914 18.7664C169.912 18.7735 169.909 18.7806 169.907 18.7878L171.322 19.285ZM173.962 15.71L173.046 14.5223C173.04 14.5266 173.035 14.531 173.029 14.5353L173.962 15.71ZM179.242 13.4L178.884 11.9434L178.884 11.9434L179.242 13.4ZM196.127 13.4L195.763 14.8552L195.769 14.8566L196.127 13.4ZM201.352 15.71L200.419 16.8847C200.425 16.889 200.43 16.8934 200.436 16.8977L201.352 15.71ZM203.992 19.285L202.573 19.7705C202.578 19.7857 202.583 19.8008 202.589 19.8158L203.992 19.285ZM183.917 42.495L182.894 43.5916C182.907 43.6041 182.921 43.6165 182.935 43.6285L183.917 42.495ZM191.507 42.495L192.489 43.6285C192.503 43.6165 192.517 43.6041 192.53 43.5916L191.507 42.495ZM191.507 24.07L190.484 25.1666C190.497 25.1791 190.511 25.1915 190.525 25.2035L191.507 24.07ZM183.917 24.07L184.899 25.2035C184.913 25.1915 184.927 25.1791 184.94 25.1666L183.917 24.07ZM203.262 42.605C203.262 44.1385 203.029 45.5001 202.584 46.7064L205.4 47.7436C205.982 46.1632 206.262 44.4448 206.262 42.605H203.262ZM202.577 46.7278C202.208 47.7771 201.52 48.7212 200.436 49.5573L202.268 51.9327C203.751 50.7888 204.823 49.3862 205.407 47.7222L202.577 46.7278ZM200.441 49.5535C199.416 50.3369 197.891 51.0216 195.769 51.5434L196.485 54.4566C198.837 53.8784 200.794 53.0598 202.263 51.9365L200.441 49.5535ZM195.763 51.5448C193.726 52.0542 191.054 52.325 187.712 52.325V55.325C191.19 55.325 194.128 55.0458 196.491 54.4552L195.763 51.5448ZM187.712 52.325C184.371 52.325 181.678 52.0544 179.6 51.5434L178.884 54.4566C181.279 55.0456 184.233 55.325 187.712 55.325V52.325ZM179.6 51.5434C177.479 51.0217 175.925 50.335 174.856 49.5409L173.068 51.9491C174.565 53.0617 176.532 53.8783 178.884 54.4566L179.6 51.5434ZM174.895 49.5703C173.839 48.7317 173.133 47.7735 172.725 46.6942L169.919 47.7558C170.537 49.3899 171.592 50.7783 173.029 51.9197L174.895 49.5703ZM172.741 46.7395C172.325 45.5233 172.107 44.1501 172.107 42.605H169.107C169.107 44.4332 169.365 46.14 169.903 47.7105L172.741 46.7395ZM172.107 42.605V23.85H169.107V42.605H172.107ZM172.107 23.85C172.107 22.304 172.325 20.9542 172.737 19.7822L169.907 18.7878C169.365 20.3292 169.107 22.0226 169.107 23.85H172.107ZM172.73 19.8036C173.141 18.687 173.847 17.7164 174.895 16.8847L173.029 14.5353C171.583 15.6836 170.53 17.0963 169.914 18.7664L172.73 19.8036ZM174.878 16.8977C175.942 16.077 177.487 15.3762 179.6 14.8566L178.884 11.9434C176.524 12.5238 174.549 13.363 173.046 14.5223L174.878 16.8977ZM179.6 14.8566C181.678 14.3456 184.371 14.075 187.712 14.075V11.075C184.233 11.075 181.279 11.3544 178.884 11.9434L179.6 14.8566ZM187.712 14.075C191.054 14.075 193.726 14.3458 195.763 14.8552L196.491 11.9448C194.128 11.3542 191.19 11.075 187.712 11.075V14.075ZM195.769 14.8566C197.882 15.3763 199.4 16.075 200.419 16.8847L202.285 14.5353C200.811 13.365 198.845 12.5237 196.485 11.9434L195.769 14.8566ZM200.436 16.8977C201.511 17.7268 202.201 18.6833 202.573 19.7705L205.411 18.7995C204.83 17.1001 203.76 15.6732 202.268 14.5223L200.436 16.8977ZM202.589 19.8158C203.029 20.9777 203.262 22.3157 203.262 23.85H206.262C206.262 22.011 205.982 20.3056 205.395 18.7542L202.589 19.8158ZM203.262 23.85V42.605H206.262V23.85H203.262ZM181.592 40.625C181.592 41.7861 182.048 42.8029 182.894 43.5916L184.94 41.3984C184.686 41.1604 184.592 40.9305 184.592 40.625H181.592ZM182.935 43.6285C183.511 44.1282 184.281 44.3697 185.001 44.5053C185.76 44.6483 186.673 44.71 187.712 44.71V41.71C186.771 41.71 186.062 41.6525 185.556 41.5572C185.011 41.4545 184.873 41.3385 184.899 41.3615L182.935 43.6285ZM187.712 44.71C188.751 44.71 189.664 44.6483 190.423 44.5053C191.143 44.3697 191.913 44.1282 192.489 43.6285L190.525 41.3615C190.551 41.3385 190.413 41.4545 189.868 41.5572C189.362 41.6525 188.653 41.71 187.712 41.71V44.71ZM192.53 43.5916C193.376 42.8029 193.832 41.7861 193.832 40.625H190.832C190.832 40.9305 190.738 41.1604 190.484 41.3984L192.53 43.5916ZM193.832 40.625V25.83H190.832V40.625H193.832ZM193.832 25.83C193.832 24.6766 193.351 23.6835 192.489 22.9365L190.525 25.2035C190.763 25.4098 190.832 25.5901 190.832 25.83H193.832ZM192.53 22.9734C191.955 22.4362 191.177 22.1712 190.444 22.0225C189.676 21.8666 188.755 21.8 187.712 21.8V24.8C188.649 24.8 189.35 24.8617 189.847 24.9625C190.38 25.0705 190.509 25.1905 190.484 25.1666L192.53 22.9734ZM187.712 21.8C186.669 21.8 185.748 21.8666 184.98 22.0225C184.247 22.1712 183.469 22.4362 182.894 22.9734L184.94 25.1666C184.915 25.1905 185.044 25.0705 185.577 24.9625C186.074 24.8617 186.775 24.8 187.712 24.8V21.8ZM182.935 22.9365C182.073 23.6835 181.592 24.6766 181.592 25.83H184.592C184.592 25.5901 184.661 25.4098 184.899 25.2035L182.935 22.9365ZM181.592 25.83V40.625H184.592V25.83H181.592ZM219.745 52.56L218.624 53.5565C218.663 53.6005 218.705 53.6421 218.749 53.6811L219.745 52.56ZM219.305 24.015H220.805C220.805 23.1866 220.134 22.515 219.305 22.515V24.015ZM209.68 23.575L208.559 24.5715C208.598 24.6155 208.64 24.6571 208.684 24.6961L209.68 23.575ZM209.68 13.895L208.62 12.8343L208.62 12.8343L209.68 13.895ZM241.745 13.895L240.624 14.8915C240.663 14.9355 240.705 14.9771 240.749 15.0161L241.745 13.895ZM232.175 24.015V22.515C231.347 22.515 230.675 23.1866 230.675 24.015H232.175ZM231.68 52.56L230.62 51.4993L230.62 51.4993L231.68 52.56ZM230.195 51.5H221.285V54.5H230.195V51.5ZM221.285 51.5C221.036 51.5 220.879 51.4732 220.79 51.4477C220.705 51.4235 220.707 51.408 220.742 51.4389L218.749 53.6811C219.474 54.3257 220.423 54.5 221.285 54.5V51.5ZM220.866 51.5635C220.897 51.5982 220.882 51.6002 220.857 51.5154C220.832 51.4264 220.805 51.2688 220.805 51.02H217.805C217.805 51.882 217.979 52.8314 218.624 53.5565L220.866 51.5635ZM220.805 51.02V24.015H217.805V51.02H220.805ZM219.305 22.515H211.22V25.515H219.305V22.515ZM211.22 22.515C210.971 22.515 210.814 22.4882 210.725 22.4627C210.64 22.4385 210.642 22.423 210.677 22.4539L208.684 24.6961C209.409 25.3407 210.358 25.515 211.22 25.515V22.515ZM210.801 22.5785C210.832 22.6132 210.817 22.6152 210.792 22.5304C210.767 22.4414 210.74 22.2838 210.74 22.035H207.74C207.74 22.897 207.914 23.8464 208.559 24.5715L210.801 22.5785ZM210.74 22.035V15.38H207.74V22.035H210.74ZM210.74 15.38C210.74 15.1291 210.768 14.9829 210.788 14.9124C210.808 14.8469 210.809 14.8874 210.741 14.9557L208.62 12.8343C207.905 13.5487 207.74 14.5402 207.74 15.38H210.74ZM210.741 14.9557C210.677 15.0196 210.727 14.9 211.22 14.9V11.9C210.32 11.9 209.343 12.1104 208.62 12.8343L210.741 14.9557ZM211.22 14.9H240.26V11.9H211.22V14.9ZM240.26 14.9C240.498 14.9 240.627 14.9291 240.68 14.9468C240.723 14.9614 240.681 14.9559 240.624 14.8915L242.866 12.8985C242.159 12.1024 241.141 11.9 240.26 11.9V14.9ZM240.749 15.0161C240.684 14.9589 240.679 14.9168 240.693 14.9606C240.711 15.0136 240.74 15.1423 240.74 15.38H243.74C243.74 14.499 243.538 13.4814 242.742 12.7739L240.749 15.0161ZM240.74 15.38V22.035H243.74V15.38H240.74ZM240.74 22.035C240.74 22.5279 240.621 22.5782 240.685 22.5143L242.806 24.6357C243.53 23.9118 243.74 22.9354 243.74 22.035H240.74ZM240.685 22.5143C240.753 22.4461 240.793 22.4474 240.728 22.4668C240.657 22.4877 240.511 22.515 240.26 22.515V25.515C241.1 25.515 242.092 25.35 242.806 24.6357L240.685 22.5143ZM240.26 22.515H232.175V25.515H240.26V22.515ZM230.675 24.015V51.02H233.675V24.015H230.675ZM230.675 51.02C230.675 51.5129 230.556 51.5632 230.62 51.4993L232.741 53.6207C233.465 52.8968 233.675 51.9204 233.675 51.02H230.675ZM230.62 51.4993C230.688 51.4311 230.728 51.4324 230.663 51.4518C230.592 51.4727 230.446 51.5 230.195 51.5V54.5C231.035 54.5 232.027 54.335 232.741 53.6207L230.62 51.4993ZM259.845 52.56L258.724 53.5565C258.763 53.6005 258.805 53.6421 258.849 53.6811L259.845 52.56ZM259.845 13.895L258.785 12.8343L258.785 12.8343L259.845 13.895ZM271.395 13.895L270.274 14.8915C270.313 14.9355 270.355 14.9771 270.399 15.0161L271.395 13.895ZM271.89 27.315H270.39C270.39 28.1434 271.062 28.815 271.89 28.815V27.315ZM281.075 27.315V28.815C281.904 28.815 282.575 28.1434 282.575 27.315H281.075ZM281.515 13.895L280.455 12.8343L280.455 12.8343L281.515 13.895ZM293.065 13.895L291.944 14.8915C291.983 14.9355 292.025 14.9771 292.069 15.0161L293.065 13.895ZM293.065 52.56L294.126 53.6207L294.126 53.6207L293.065 52.56ZM281.515 52.56L280.394 53.5565C280.433 53.6005 280.475 53.6421 280.519 53.6811L281.515 52.56ZM281.075 38.81H282.575C282.575 37.9816 281.904 37.31 281.075 37.31V38.81ZM271.89 38.81V37.31C271.062 37.31 270.39 37.9816 270.39 38.81H271.89ZM271.395 52.56L270.335 51.4993L270.335 51.4993L271.395 52.56ZM269.91 51.5H261.385V54.5H269.91V51.5ZM261.385 51.5C261.137 51.5 260.979 51.4732 260.89 51.4477C260.805 51.4235 260.807 51.408 260.842 51.4389L258.849 53.6811C259.574 54.3257 260.523 54.5 261.385 54.5V51.5ZM260.966 51.5635C260.997 51.5982 260.982 51.6002 260.958 51.5154C260.932 51.4264 260.905 51.2688 260.905 51.02H257.905C257.905 51.882 258.08 52.8314 258.724 53.5565L260.966 51.5635ZM260.905 51.02V15.38H257.905V51.02H260.905ZM260.905 15.38C260.905 15.1291 260.933 14.9829 260.954 14.9124C260.973 14.8469 260.974 14.8874 260.906 14.9557L258.785 12.8343C258.07 13.5487 257.905 14.5402 257.905 15.38H260.905ZM260.906 14.9557C260.842 15.0196 260.892 14.9 261.385 14.9V11.9C260.485 11.9 259.509 12.1104 258.785 12.8343L260.906 14.9557ZM261.385 14.9H269.91V11.9H261.385V14.9ZM269.91 14.9C270.148 14.9 270.277 14.9291 270.33 14.9468C270.374 14.9614 270.331 14.9559 270.274 14.8915L272.516 12.8985C271.809 12.1024 270.791 11.9 269.91 11.9V14.9ZM270.399 15.0161C270.334 14.9589 270.329 14.9168 270.344 14.9606C270.361 15.0136 270.39 15.1423 270.39 15.38H273.39C273.39 14.499 273.188 13.4814 272.392 12.7739L270.399 15.0161ZM270.39 15.38V27.315H273.39V15.38H270.39ZM271.89 28.815H281.075V25.815H271.89V28.815ZM282.575 27.315V15.38H279.575V27.315H282.575ZM282.575 15.38C282.575 15.1291 282.603 14.9829 282.624 14.9124C282.643 14.8469 282.644 14.8874 282.576 14.9557L280.455 12.8343C279.74 13.5487 279.575 14.5402 279.575 15.38H282.575ZM282.576 14.9557C282.512 15.0196 282.562 14.9 283.055 14.9V11.9C282.155 11.9 281.179 12.1104 280.455 12.8343L282.576 14.9557ZM283.055 14.9H291.58V11.9H283.055V14.9ZM291.58 14.9C291.818 14.9 291.947 14.9291 292 14.9468C292.044 14.9614 292.001 14.9559 291.944 14.8915L294.186 12.8985C293.479 12.1024 292.461 11.9 291.58 11.9V14.9ZM292.069 15.0161C292.004 14.9589 291.999 14.9168 292.014 14.9606C292.031 15.0136 292.06 15.1423 292.06 15.38H295.06C295.06 14.499 294.858 13.4814 294.062 12.7739L292.069 15.0161ZM292.06 15.38V51.02H295.06V15.38H292.06ZM292.06 51.02C292.06 51.5129 291.941 51.5632 292.005 51.4993L294.126 53.6207C294.85 52.8968 295.06 51.9204 295.06 51.02H292.06ZM292.005 51.4993C292.073 51.4311 292.113 51.4324 292.048 51.4518C291.977 51.4727 291.831 51.5 291.58 51.5V54.5C292.42 54.5 293.412 54.335 294.126 53.6207L292.005 51.4993ZM291.58 51.5H283.055V54.5H291.58V51.5ZM283.055 51.5C282.807 51.5 282.649 51.4732 282.56 51.4477C282.475 51.4235 282.477 51.408 282.512 51.4389L280.519 53.6811C281.244 54.3257 282.193 54.5 283.055 54.5V51.5ZM282.636 51.5635C282.667 51.5982 282.652 51.6002 282.628 51.5154C282.602 51.4264 282.575 51.2688 282.575 51.02H279.575C279.575 51.882 279.75 52.8314 280.394 53.5565L282.636 51.5635ZM282.575 51.02V38.81H279.575V51.02H282.575ZM281.075 37.31H271.89V40.31H281.075V37.31ZM270.39 38.81V51.02H273.39V38.81H270.39ZM270.39 51.02C270.39 51.5129 270.271 51.5632 270.335 51.4993L272.456 53.6207C273.18 52.8968 273.39 51.9204 273.39 51.02H270.39ZM270.335 51.4993C270.403 51.4311 270.443 51.4324 270.378 51.4518C270.307 51.4727 270.161 51.5 269.91 51.5V54.5C270.75 54.5 271.742 54.335 272.456 53.6207L270.335 51.4993ZM333.919 47.225L332.511 46.7064C332.509 46.7135 332.506 46.7206 332.504 46.7278L333.919 47.225ZM331.279 50.745L332.19 51.9365L332.195 51.9327L331.279 50.745ZM326.054 53L325.696 51.5434L325.69 51.5448L326.054 53ZM309.169 53L308.811 54.4566L308.811 54.4566L309.169 53ZM303.889 50.745L302.956 51.9197C302.969 51.9297 302.981 51.9395 302.994 51.9491L303.889 50.745ZM301.249 47.225L299.83 47.7105C299.835 47.7257 299.84 47.7408 299.846 47.7558L301.249 47.225ZM301.249 19.285L299.841 18.7664C299.839 18.7735 299.836 18.7806 299.834 18.7878L301.249 19.285ZM303.889 15.71L302.973 14.5223C302.967 14.5266 302.961 14.531 302.956 14.5353L303.889 15.71ZM309.169 13.4L308.811 11.9434L308.811 11.9434L309.169 13.4ZM326.054 13.4L325.69 14.8552L325.696 14.8566L326.054 13.4ZM331.279 15.71L330.346 16.8847C330.351 16.889 330.357 16.8934 330.363 16.8977L331.279 15.71ZM333.919 19.285L332.5 19.7705C332.505 19.7857 332.51 19.8008 332.516 19.8158L333.919 19.285ZM313.844 42.495L312.82 43.5916C312.834 43.6041 312.847 43.6165 312.861 43.6285L313.844 42.495ZM321.434 42.495L322.416 43.6285C322.43 43.6165 322.444 43.6041 322.457 43.5916L321.434 42.495ZM321.434 24.07L320.41 25.1666C320.424 25.1791 320.437 25.1915 320.451 25.2035L321.434 24.07ZM313.844 24.07L314.826 25.2035C314.84 25.1915 314.854 25.1791 314.867 25.1666L313.844 24.07ZM333.189 42.605C333.189 44.1385 332.956 45.5001 332.511 46.7064L335.326 47.7436C335.908 46.1632 336.189 44.4448 336.189 42.605H333.189ZM332.504 46.7278C332.135 47.7771 331.446 48.7212 330.363 49.5573L332.195 51.9327C333.678 50.7888 334.749 49.3862 335.334 47.7222L332.504 46.7278ZM330.368 49.5535C329.343 50.3369 327.818 51.0216 325.696 51.5434L326.412 54.4566C328.763 53.8784 330.721 53.0598 332.19 51.9365L330.368 49.5535ZM325.69 51.5448C323.652 52.0542 320.981 52.325 317.639 52.325V55.325C321.116 55.325 324.055 55.0458 326.418 54.4552L325.69 51.5448ZM317.639 52.325C314.298 52.325 311.605 52.0544 309.527 51.5434L308.811 54.4566C311.206 55.0456 314.16 55.325 317.639 55.325V52.325ZM309.527 51.5434C307.405 51.0217 305.852 50.335 304.783 49.5409L302.994 51.9491C304.492 53.0617 306.459 53.8783 308.811 54.4566L309.527 51.5434ZM304.822 49.5703C303.766 48.7317 303.06 47.7735 302.652 46.6942L299.846 47.7558C300.464 49.3899 301.519 50.7783 302.956 51.9197L304.822 49.5703ZM302.668 46.7395C302.252 45.5233 302.034 44.1501 302.034 42.605H299.034C299.034 44.4332 299.292 46.14 299.83 47.7105L302.668 46.7395ZM302.034 42.605V23.85H299.034V42.605H302.034ZM302.034 23.85C302.034 22.304 302.252 20.9542 302.664 19.7822L299.834 18.7878C299.292 20.3292 299.034 22.0226 299.034 23.85H302.034ZM302.656 19.8036C303.068 18.687 303.774 17.7164 304.822 16.8847L302.956 14.5353C301.51 15.6836 300.457 17.0963 299.841 18.7664L302.656 19.8036ZM304.805 16.8977C305.869 16.077 307.414 15.3762 309.527 14.8566L308.811 11.9434C306.45 12.5238 304.475 13.363 302.973 14.5223L304.805 16.8977ZM309.527 14.8566C311.605 14.3456 314.298 14.075 317.639 14.075V11.075C314.16 11.075 311.206 11.3544 308.811 11.9434L309.527 14.8566ZM317.639 14.075C320.981 14.075 323.652 14.3458 325.69 14.8552L326.418 11.9448C324.055 11.3542 321.116 11.075 317.639 11.075V14.075ZM325.696 14.8566C327.809 15.3763 329.326 16.075 330.346 16.8847L332.212 14.5353C330.738 13.365 328.772 12.5237 326.412 11.9434L325.696 14.8566ZM330.363 16.8977C331.437 17.7268 332.128 18.6833 332.5 19.7705L335.338 18.7995C334.757 17.1001 333.687 15.6732 332.195 14.5223L330.363 16.8977ZM332.516 19.8158C332.955 20.9777 333.189 22.3157 333.189 23.85H336.189C336.189 22.011 335.909 20.3056 335.322 18.7542L332.516 19.8158ZM333.189 23.85V42.605H336.189V23.85H333.189ZM311.519 40.625C311.519 41.7861 311.975 42.8029 312.82 43.5916L314.867 41.3984C314.612 41.1604 314.519 40.9305 314.519 40.625H311.519ZM312.861 43.6285C313.438 44.1282 314.207 44.3697 314.927 44.5053C315.686 44.6483 316.6 44.71 317.639 44.71V41.71C316.698 41.71 315.989 41.6525 315.483 41.5572C314.938 41.4545 314.8 41.3385 314.826 41.3615L312.861 43.6285ZM317.639 44.71C318.678 44.71 319.591 44.6483 320.35 44.5053C321.07 44.3697 321.84 44.1282 322.416 43.6285L320.451 41.3615C320.478 41.3385 320.34 41.4545 319.795 41.5572C319.289 41.6525 318.58 41.71 317.639 41.71V44.71ZM322.457 43.5916C323.302 42.8029 323.759 41.7861 323.759 40.625H320.759C320.759 40.9305 320.665 41.1604 320.41 41.3984L322.457 43.5916ZM323.759 40.625V25.83H320.759V40.625H323.759ZM323.759 25.83C323.759 24.6766 323.278 23.6835 322.416 22.9365L320.451 25.2035C320.689 25.4098 320.759 25.5901 320.759 25.83H323.759ZM322.457 22.9734C321.882 22.4362 321.104 22.1712 320.371 22.0225C319.603 21.8666 318.682 21.8 317.639 21.8V24.8C318.576 24.8 319.277 24.8617 319.774 24.9625C320.306 25.0705 320.436 25.1905 320.41 25.1666L322.457 22.9734ZM317.639 21.8C316.596 21.8 315.675 21.8666 314.907 22.0225C314.174 22.1712 313.396 22.4362 312.82 22.9734L314.867 25.1666C314.842 25.1905 314.971 25.0705 315.503 24.9625C316 24.8617 316.702 24.8 317.639 24.8V21.8ZM312.861 22.9365C311.999 23.6835 311.519 24.6766 311.519 25.83H314.519C314.519 25.5901 314.588 25.4098 314.826 25.2035L312.861 22.9365ZM311.519 25.83V40.625H314.519V25.83H311.519ZM342.131 52.56L341.009 53.5565C341.048 53.6005 341.09 53.6421 341.134 53.6811L342.131 52.56ZM342.131 13.895L341.07 12.8343L341.07 12.8343L342.131 13.895ZM370.731 16.37L369.63 17.3891L369.63 17.3891L370.731 16.37ZM370.731 38.92L369.63 37.9009L369.63 37.9009L370.731 38.92ZM354.176 41.89V40.39C353.347 40.39 352.676 41.0616 352.676 41.89H354.176ZM353.681 52.56L352.62 51.4993L352.62 51.4993L353.681 52.56ZM354.066 23.685V22.185C353.237 22.185 352.566 22.8566 352.566 23.685H354.066ZM354.066 31.99H352.566C352.566 32.8184 353.237 33.49 354.066 33.49V31.99ZM361.106 31.165L362.392 31.9367L362.392 31.9367L361.106 31.165ZM361.106 24.51L359.819 25.2817L359.819 25.2817L361.106 24.51ZM352.196 51.5H343.671V54.5H352.196V51.5ZM343.671 51.5C343.422 51.5 343.264 51.4732 343.175 51.4477C343.09 51.4235 343.092 51.408 343.127 51.4389L341.134 53.6811C341.859 54.3257 342.808 54.5 343.671 54.5V51.5ZM343.252 51.5635C343.283 51.5982 343.267 51.6002 343.243 51.5154C343.217 51.4264 343.191 51.2688 343.191 51.02H340.191C340.191 51.882 340.365 52.8314 341.009 53.5565L343.252 51.5635ZM343.191 51.02V15.38H340.191V51.02H343.191ZM343.191 15.38C343.191 15.1291 343.218 14.9829 343.239 14.9124C343.258 14.8469 343.259 14.8874 343.191 14.9557L341.07 12.8343C340.356 13.5487 340.191 14.5402 340.191 15.38H343.191ZM343.191 14.9557C343.127 15.0196 343.178 14.9 343.671 14.9V11.9C342.77 11.9 341.794 12.1104 341.07 12.8343L343.191 14.9557ZM343.671 14.9H360.501V11.9H343.671V14.9ZM360.501 14.9C365.393 14.9 368.243 15.8917 369.63 17.3891L371.831 15.3509C369.551 12.8883 365.582 11.9 360.501 11.9V14.9ZM369.63 17.3891C371.161 19.0425 371.981 21.2397 371.981 24.125H374.981C374.981 20.6303 373.967 17.6575 371.831 15.3509L369.63 17.3891ZM371.981 24.125V31.165H374.981V24.125H371.981ZM371.981 31.165C371.981 34.0503 371.161 36.2475 369.63 37.9009L371.831 39.9391C373.967 37.6325 374.981 34.6597 374.981 31.165H371.981ZM369.63 37.9009C368.243 39.3983 365.393 40.39 360.501 40.39V43.39C365.582 43.39 369.551 42.4017 371.831 39.9391L369.63 37.9009ZM360.501 40.39H354.176V43.39H360.501V40.39ZM352.676 41.89V51.02H355.676V41.89H352.676ZM352.676 51.02C352.676 51.5129 352.556 51.5632 352.62 51.4993L354.741 53.6207C355.465 52.8968 355.676 51.9204 355.676 51.02H352.676ZM352.62 51.4993C352.688 51.4311 352.729 51.4324 352.663 51.4518C352.593 51.4727 352.446 51.5 352.196 51.5V54.5C353.035 54.5 354.027 54.335 354.741 53.6207L352.62 51.4993ZM352.566 23.685V31.99H355.566V23.685H352.566ZM354.066 33.49H359.016V30.49H354.066V33.49ZM359.016 33.49C360.247 33.49 361.647 33.1784 362.392 31.9367L359.819 30.3933C359.852 30.3394 359.88 30.3511 359.785 30.3885C359.669 30.4343 359.432 30.49 359.016 30.49V33.49ZM362.392 31.9367C362.874 31.1337 363.101 30.2393 363.101 29.295H360.101C360.101 29.744 359.997 30.0963 359.819 30.3933L362.392 31.9367ZM363.101 29.295V26.38H360.101V29.295H363.101ZM363.101 26.38C363.101 25.4357 362.874 24.5413 362.392 23.7383L359.819 25.2817C359.997 25.5787 360.101 25.931 360.101 26.38H363.101ZM362.392 23.7383C361.647 22.4966 360.248 22.185 359.016 22.185V25.185C359.432 25.185 359.669 25.2407 359.785 25.2865C359.88 25.3239 359.852 25.3356 359.819 25.2817L362.392 23.7383ZM359.016 22.185H354.066V25.185H359.016V22.185Z" fill="#B12628"/>
<path d="M230.615 81.6506C230.214 81.3957 229.741 81.2679 229.198 81.2679C228.646 81.2679 228.174 81.4059 227.78 81.6818C227.493 81.8834 227.277 82.1355 227.128 82.4356V81.8699C227.128 81.6777 227.08 81.5336 226.984 81.4374C226.888 81.3411 226.748 81.293 226.564 81.293C226.388 81.293 226.251 81.3411 226.15 81.4374C226.05 81.5336 226 81.6777 226 81.8699V89.2574C226 89.4412 226.05 89.5835 226.15 89.6838C226.251 89.7841 226.388 89.8343 226.564 89.8343C226.748 89.8343 226.89 89.7841 226.991 89.6838C227.091 89.5835 227.141 89.4412 227.141 89.2574V86.4417C227.29 86.7369 227.506 86.9865 227.793 87.188C228.186 87.4639 228.654 87.6018 229.198 87.6018C229.741 87.6018 230.216 87.4744 230.621 87.2192C231.027 86.9643 231.341 86.5966 231.562 86.1157C231.783 85.6348 231.895 85.0725 231.895 84.4286C231.895 83.7765 231.782 83.2143 231.556 82.7415C231.33 82.2694 231.016 81.9057 230.615 81.6506L230.615 81.6506ZM230.515 85.6704C230.364 86.0049 230.153 86.2598 229.881 86.4353C229.61 86.6109 229.294 86.6987 228.935 86.6987C228.383 86.6987 227.944 86.5044 227.618 86.1157C227.292 85.7267 227.128 85.1644 227.128 84.4286C227.128 83.9355 227.201 83.5214 227.348 83.1869C227.494 82.8527 227.703 82.5995 227.975 82.428C228.246 82.2569 228.567 82.1711 228.935 82.1711C229.486 82.1711 229.926 82.3636 230.252 82.748C230.578 83.1326 230.74 83.6928 230.74 84.4286C230.74 84.9221 230.665 85.3359 230.515 85.6704Z" fill="#FFDF7F"/>
<path d="M237.526 81.6567C237.083 81.3977 236.56 81.2679 235.958 81.2679C235.507 81.2679 235.099 81.3411 234.735 81.4875C234.372 81.6339 234.06 81.8448 233.801 82.121C233.542 82.3968 233.343 82.729 233.205 83.118C233.067 83.5068 232.998 83.9439 232.998 84.4286C232.998 85.0725 233.119 85.6328 233.362 86.1093C233.604 86.5858 233.947 86.9538 234.39 87.2131C234.834 87.4724 235.356 87.6019 235.958 87.6019C236.41 87.6019 236.817 87.5287 237.181 87.3823C237.545 87.2361 237.856 87.025 238.116 86.7491C238.375 86.4729 238.574 86.1387 238.711 85.7456C238.849 85.3528 238.918 84.9136 238.918 84.4286C238.918 83.785 238.797 83.2268 238.554 82.7541C238.312 82.2819 237.969 81.9159 237.526 81.6567ZM237.545 85.6704C237.398 86.0049 237.189 86.2598 236.918 86.4353C236.646 86.6109 236.326 86.6987 235.958 86.6987C235.415 86.6987 234.978 86.5044 234.648 86.1157C234.317 85.7267 234.152 85.1644 234.152 84.4286C234.152 83.9355 234.228 83.5214 234.378 83.1869C234.529 82.8527 234.74 82.5995 235.012 82.428C235.283 82.2569 235.599 82.1711 235.958 82.1711C236.51 82.1711 236.949 82.3636 237.275 82.748C237.601 83.1326 237.765 83.6928 237.765 84.4286C237.765 84.9221 237.691 85.3359 237.545 85.6704Z" fill="#FFDF7F"/>
<path d="M249.015 81.2932C248.881 81.2932 248.769 81.3247 248.676 81.3874C248.584 81.4501 248.509 81.565 248.451 81.7321L246.864 86.1697L245.277 81.7321C245.235 81.5816 245.165 81.4711 245.064 81.3999C244.964 81.3288 244.839 81.2932 244.688 81.2932C244.546 81.2932 244.426 81.3288 244.331 81.3999C244.234 81.4711 244.157 81.5816 244.098 81.7321L242.495 86.1529L240.938 81.7572C240.879 81.5816 240.808 81.4606 240.724 81.3935C240.641 81.3267 240.528 81.2932 240.386 81.2932C240.235 81.2932 240.114 81.3267 240.022 81.3935C239.93 81.4606 239.872 81.5524 239.846 81.6694C239.821 81.7866 239.838 81.9246 239.897 82.0835L241.765 87.0628C241.832 87.2468 241.924 87.3783 242.041 87.4576C242.158 87.5373 242.296 87.5769 242.455 87.5769C242.623 87.5769 242.764 87.5349 242.882 87.4515C242.999 87.3681 243.091 87.2383 243.158 87.0628L244.663 82.9368L246.168 87.0628C246.235 87.2383 246.329 87.3681 246.45 87.4515C246.571 87.5349 246.711 87.5769 246.87 87.5769C247.029 87.5769 247.169 87.5349 247.291 87.4515C247.411 87.3681 247.502 87.2383 247.56 87.0628L249.429 82.0835C249.479 81.9496 249.498 81.8222 249.485 81.7009C249.473 81.5799 249.429 81.4813 249.354 81.406C249.278 81.3308 249.166 81.2932 249.015 81.2932Z" fill="#FFDF7F"/>
<path d="M255.932 84.5855C256.012 84.5144 256.051 84.412 256.051 84.2781C256.051 83.8101 255.991 83.3898 255.869 83.0177C255.748 82.6456 255.57 82.3301 255.336 82.0708C255.102 81.8115 254.82 81.6129 254.49 81.475C254.159 81.3371 253.789 81.2679 253.38 81.2679C252.802 81.2679 252.29 81.4018 251.843 81.6692C251.396 81.9369 251.044 82.3091 250.79 82.7856C250.535 83.2621 250.407 83.8182 250.407 84.4537C250.407 85.0976 250.536 85.6558 250.796 86.1282C251.055 86.6007 251.421 86.9643 251.893 87.2192C252.366 87.4744 252.932 87.6019 253.593 87.6019C253.944 87.6019 254.31 87.5496 254.69 87.4449C255.071 87.3405 255.399 87.1924 255.675 86.9999C255.792 86.9247 255.872 86.8369 255.913 86.7366C255.955 86.636 255.968 86.5421 255.951 86.4543C255.934 86.3665 255.892 86.2913 255.825 86.2286C255.758 86.1659 255.673 86.1323 255.568 86.1282C255.464 86.1242 255.349 86.1594 255.224 86.2347C254.964 86.4102 254.695 86.5316 254.415 86.5983C254.134 86.6654 253.86 86.6987 253.593 86.6987C252.916 86.6987 252.397 86.5065 252.038 86.1218C251.725 85.7875 251.556 85.305 251.516 84.692H255.587C255.737 84.692 255.852 84.6567 255.932 84.5855L255.932 84.5855ZM251.532 83.9646C251.564 83.6768 251.619 83.405 251.724 83.1682C251.874 82.8296 252.092 82.566 252.376 82.3779C252.661 82.1898 253.004 82.0959 253.405 82.0959C253.772 82.0959 254.08 82.1752 254.326 82.3341C254.573 82.4931 254.761 82.7249 254.891 83.0303C255.002 83.2912 255.055 83.6092 255.071 83.9646C255.071 83.9646 251.532 83.9646 251.532 83.9646Z" fill="#FFDF7F"/>
<path d="M260.604 81.2556C260.043 81.2892 259.58 81.4356 259.212 81.6945C258.937 81.8877 258.729 82.1487 258.585 82.4765V81.8701C258.585 81.6779 258.536 81.5338 258.44 81.4376C258.344 81.3414 258.208 81.2932 258.032 81.2932C257.857 81.2932 257.719 81.3414 257.619 81.4376C257.518 81.5338 257.468 81.6779 257.468 81.8701V86.9876C257.468 87.1801 257.518 87.3262 257.619 87.4265C257.719 87.5268 257.865 87.577 258.057 87.577C258.242 87.577 258.382 87.5268 258.478 87.4265C258.574 87.3262 258.622 87.1801 258.622 86.9876V84.0526C258.622 83.5257 258.771 83.1118 259.068 82.8109C259.364 82.5099 259.788 82.3303 260.34 82.2717L260.566 82.2591C260.742 82.2425 260.871 82.1859 260.955 82.0897C261.038 81.9937 261.076 81.866 261.068 81.7071C261.059 81.54 261.013 81.421 260.93 81.3498C260.846 81.2787 260.737 81.2475 260.604 81.2556L260.604 81.2556Z" fill="#FFDF7F"/>
<path d="M267.12 84.5855C267.199 84.5144 267.239 84.412 267.239 84.2781C267.239 83.8101 267.178 83.3898 267.057 83.0177C266.936 82.6456 266.758 82.3301 266.524 82.0708C266.29 81.8115 266.008 81.6129 265.678 81.475C265.347 81.3371 264.977 81.2679 264.568 81.2679C263.99 81.2679 263.478 81.4018 263.031 81.6692C262.583 81.9369 262.232 82.3091 261.977 82.7856C261.723 83.2621 261.595 83.8182 261.595 84.4537C261.595 85.0976 261.724 85.6558 261.984 86.1282C262.243 86.6007 262.609 86.9643 263.081 87.2192C263.553 87.4744 264.12 87.6019 264.781 87.6019C265.132 87.6019 265.497 87.5496 265.878 87.4449C266.259 87.3405 266.587 87.1924 266.863 86.9999C266.979 86.9247 267.059 86.8369 267.101 86.7366C267.143 86.636 267.156 86.5421 267.139 86.4543C267.122 86.3665 267.08 86.2913 267.013 86.2286C266.946 86.1659 266.861 86.1323 266.756 86.1282C266.652 86.1242 266.537 86.1594 266.411 86.2347C266.152 86.4102 265.882 86.5316 265.602 86.5983C265.322 86.6654 265.048 86.6987 264.781 86.6987C264.103 86.6987 263.585 86.5065 263.226 86.1218C262.913 85.7875 262.744 85.305 262.704 84.692H266.775C266.925 84.692 267.04 84.6567 267.12 84.5855L267.12 84.5855ZM262.72 83.9646C262.752 83.6768 262.807 83.405 262.912 83.1682C263.062 82.8296 263.28 82.566 263.564 82.3779C263.849 82.1898 264.192 82.0959 264.593 82.0959C264.96 82.0959 265.268 82.1752 265.514 82.3341C265.761 82.4931 265.949 82.7249 266.079 83.0303C266.19 83.2912 266.243 83.6092 266.259 83.9646C266.259 83.9646 262.72 83.9646 262.72 83.9646Z" fill="#FFDF7F"/>
<path d="M273.611 78.5591C273.426 78.5591 273.286 78.6075 273.19 78.7034C273.094 78.7997 273.046 78.9437 273.046 79.1362V82.4168C272.897 82.1223 272.681 81.8746 272.394 81.676C272.001 81.4042 271.532 81.2683 270.989 81.2683C270.445 81.2683 269.971 81.396 269.566 81.6509C269.16 81.9061 268.846 82.2697 268.625 82.7419C268.403 83.2146 268.292 83.7769 268.292 84.429C268.292 85.0729 268.406 85.6352 268.631 86.1161C268.857 86.597 269.172 86.9647 269.578 87.2196C269.984 87.4748 270.454 87.6022 270.989 87.6022C271.532 87.6022 272.003 87.4643 272.4 87.1884C272.687 86.989 272.901 86.7376 273.046 86.4377V86.9877C273.046 87.1802 273.096 87.3263 273.196 87.4266C273.297 87.527 273.435 87.5771 273.611 87.5771C273.794 87.5771 273.937 87.527 274.037 87.4266C274.137 87.3263 274.187 87.1802 274.187 86.9877V79.1362C274.187 78.9437 274.137 78.7996 274.037 78.7034C273.937 78.6075 273.794 78.5591 273.611 78.5591L273.611 78.5591ZM272.839 85.6707C272.692 86.0052 272.484 86.2601 272.212 86.4357C271.94 86.6112 271.62 86.699 271.252 86.699C270.709 86.699 270.272 86.5048 269.942 86.1161C269.611 85.727 269.447 85.1648 269.447 84.429C269.447 83.9358 269.522 83.5217 269.672 83.1872C269.823 82.853 270.034 82.5999 270.306 82.4284C270.577 82.2572 270.893 82.1715 271.252 82.1715C271.804 82.1715 272.243 82.364 272.569 82.7483C272.895 83.133 273.059 83.6932 273.059 84.429C273.059 84.9224 272.985 85.3362 272.839 85.6707Z" fill="#FFDF7F"/>
<path d="M283.914 81.6509C283.508 81.396 283.034 81.2683 282.49 81.2683C281.947 81.2683 281.479 81.4042 281.086 81.676C280.799 81.8745 280.582 82.1221 280.434 82.4164V79.1362C280.434 78.9437 280.383 78.7996 280.283 78.7034C280.183 78.6075 280.04 78.5591 279.856 78.5591C279.681 78.5591 279.543 78.6075 279.443 78.7034C279.342 78.7996 279.292 78.9437 279.292 79.1362V86.9877C279.292 87.1802 279.342 87.3263 279.443 87.4266C279.543 87.527 279.681 87.5771 279.856 87.5771C280.04 87.5771 280.18 87.527 280.277 87.4266C280.372 87.3263 280.421 87.1802 280.421 86.9877V86.4279C280.569 86.7323 280.786 86.9867 281.073 87.1884C281.466 87.4643 281.938 87.6022 282.49 87.6022C283.034 87.6022 283.506 87.4748 283.907 87.2196C284.309 86.9647 284.623 86.597 284.848 86.1161C285.074 85.6352 285.187 85.0729 285.187 84.429C285.187 83.7769 285.076 83.2146 284.855 82.7419C284.633 82.2697 284.319 81.9061 283.914 81.6509ZM283.807 85.6707C283.657 86.0052 283.445 86.2601 283.174 86.4357C282.902 86.6112 282.586 86.699 282.227 86.699C281.675 86.699 281.236 86.5048 280.91 86.1161C280.584 85.727 280.421 85.1648 280.421 84.429C280.421 83.9358 280.494 83.5217 280.64 83.1872C280.786 82.853 280.996 82.5999 281.268 82.4284C281.539 82.2572 281.859 82.1715 282.227 82.1715C282.779 82.1715 283.218 82.3639 283.544 82.7483C283.87 83.133 284.033 83.6932 284.033 84.429C284.033 84.9224 283.958 85.3362 283.807 85.6707Z" fill="#FFDF7F"/>
<path d="M291.677 81.406C291.598 81.3308 291.487 81.2932 291.345 81.2932C291.186 81.2932 291.061 81.3267 290.968 81.3935C290.876 81.4606 290.797 81.5775 290.73 81.7446L288.901 86.1699L287.105 81.7446C287.03 81.5775 286.951 81.4606 286.867 81.3935C286.784 81.3267 286.67 81.2932 286.529 81.2932C286.361 81.2932 286.229 81.3308 286.133 81.406C286.037 81.4813 285.981 81.5775 285.964 81.6945C285.947 81.8117 285.968 81.9412 286.027 82.0835L288.294 87.3605L287.545 89.0569C287.486 89.1905 287.463 89.3182 287.475 89.4396C287.488 89.5606 287.538 89.6568 287.626 89.728C287.714 89.7988 287.825 89.8344 287.958 89.8344C288.117 89.8344 288.24 89.8032 288.329 89.7405C288.416 89.6778 288.502 89.5585 288.585 89.383L291.746 82.0709C291.813 81.9371 291.838 81.8117 291.821 81.6945C291.805 81.5775 291.756 81.4813 291.677 81.406Z" fill="#FFDF7F"/>
<path d="M344.987 73.6865H374.173C375.162 73.6865 375.964 72.8846 375.964 71.8954V67.7912C375.964 66.8019 375.162 66 374.173 66H344.987C343.998 66 343.196 66.8019 343.196 67.7912V71.8954C343.196 72.8846 343.998 73.6865 344.987 73.6865ZM343.331 67.7912C343.331 66.8778 344.074 66.1347 344.987 66.1347H374.173C375.087 66.1347 375.83 66.8778 375.83 67.7912V71.8954C375.83 72.8087 375.087 73.5518 374.173 73.5518H344.987C344.074 73.5518 343.331 72.8087 343.331 71.8954V67.7912V67.7912Z" fill="#FFDF7F"/>
<path d="M346.428 69.5444L348.575 71.807H348.926V67.8835H348.083V70.1715L345.93 67.9031L345.913 67.8835H345.584V71.807H346.428V69.5444Z" fill="#FFDF7F"/>
<path d="M351.555 67.8796H350.714V71.8061H351.555V67.8796Z" fill="#FFDF7F"/>
<path d="M359.328 69.5444L361.474 71.807H361.825V67.8835H360.983V70.1715L358.811 67.8835H358.483V71.807H359.328V69.5444Z" fill="#FFDF7F"/>
<path d="M364.606 71.807H365.449V68.7195H366.65V67.8835H363.405V68.7195H364.606V71.807Z" fill="#FFDF7F"/>
<path d="M369.092 67.8796H368.251V71.8061H369.092V67.8796Z" fill="#FFDF7F"/>
<path d="M372.596 71.806H372.596C373.091 71.806 373.457 71.6548 373.861 71.2842L373.908 71.2423L373.347 70.5942L373.302 70.6333C373.078 70.8236 372.908 70.9203 372.6 70.9203C372.295 70.9203 372.047 70.8217 371.862 70.6275C371.676 70.4338 371.581 70.166 371.579 69.8319C371.579 69.5204 371.673 69.2627 371.859 69.0658C372.043 68.8681 372.291 68.7672 372.596 68.7658C372.896 68.7658 373.069 68.8635 373.302 69.0562L373.347 69.093L373.907 68.4476L373.862 68.4054C373.458 68.0341 373.092 67.8825 372.596 67.8825C372.072 67.8825 371.627 68.0724 371.272 68.4469C370.917 68.8223 370.737 69.29 370.735 69.8372C370.735 70.3962 370.915 70.8688 371.27 71.2416C371.627 71.6142 372.073 71.804 372.596 71.806V71.806H372.596Z" fill="#FFDF7F"/>
<path d="M354.252 71.2237H355.801L356.017 71.806L356.916 71.8028L355.429 67.8825H354.624L353.168 71.7193L353.135 71.806H354.036C354.036 71.806 354.252 71.2237 354.252 71.2237ZM355.044 69.0978L355.502 70.3412L354.564 70.3525L355.044 69.0978Z" fill="#FFDF7F"/>
<path d="M351.175 77.0887C350.591 77.089 350.094 77.4873 349.97 78.0479L347.405 87.6617L345.301 79.0473C345.164 78.4953 344.671 78.1092 344.102 78.1089H342.279C341.71 78.1092 341.217 78.495 341.079 79.0482L338.977 87.6614L336.415 78.0569C336.288 77.4873 335.792 77.089 335.208 77.0887H332.965L337.046 91.6637L337.092 91.8273H339.829C340.39 91.825 340.88 91.4457 341.021 90.9038C341.634 88.5674 342.726 83.9742 343.191 82.0101C343.655 83.9742 344.749 88.5674 345.361 90.9038C345.502 91.4457 345.993 91.825 346.553 91.8273H349.29L353.417 77.0887H351.175V77.0887H351.175Z" fill="#FFDF7F"/>
<path d="M328.63 80.582C327.913 80.1906 327.079 79.9866 326.294 80.0068C325.576 80.0012 324.885 80.1433 324.233 80.4335C323.861 80.5951 323.49 80.8797 323.108 81.2982V78.2952C323.116 77.9699 322.997 77.661 322.773 77.4251C322.548 77.1896 322.245 77.0555 321.884 77.047H319.83V91.8207H321.883C322.194 91.8055 322.515 91.6979 322.746 91.4688C322.978 91.2403 323.106 90.9352 323.108 90.5962L323.108 85.4761C323.053 84.7645 323.292 83.9567 323.691 83.4786C324.124 83.0353 324.72 82.7948 325.373 82.8331C325.988 82.7916 326.596 83.0292 327.015 83.4661C327.453 83.9886 327.668 84.6508 327.622 85.3461V90.6085C327.622 91.28 328.169 91.8265 328.84 91.8265H330.894V84.9682C330.919 84.05 330.722 83.1265 330.321 82.2927C329.944 81.5589 329.359 80.9671 328.63 80.582V80.582H328.63Z" fill="#FFDF7F"/>
<path d="M367.668 77.4609C367.446 77.7076 367.32 78.0343 367.322 78.3555V90.6018C367.32 90.9268 367.445 91.2337 367.674 91.4651C367.903 91.6966 368.208 91.8246 368.54 91.8269H370.594V77.0538H368.539C368.212 77.0558 367.903 77.2002 367.668 77.4609Z" fill="#FFDF7F"/>
<path d="M375.985 77.0703H373.93C373.603 77.0723 373.297 77.2141 373.067 77.4698C372.85 77.7115 372.727 78.0352 372.729 78.3564V90.6028C372.726 90.9278 372.851 91.2347 373.08 91.4661C373.309 91.6975 373.614 91.8255 373.947 91.8279H376C376 91.8279 375.985 77.0703 375.985 77.0703Z" fill="#FFDF7F"/>
<path d="M361.91 81.2337V81.3889C361.57 81.0479 361.176 80.7583 360.749 80.5361C360.049 80.1782 359.27 80.0002 358.485 80.0139C356.58 79.9748 354.757 81.0841 353.905 82.8081C353.424 83.7587 353.18 84.8233 353.198 85.8795C353.178 86.9456 353.418 88.014 353.892 88.9694C354.32 89.8361 354.981 90.5647 355.802 91.075C356.585 91.5671 357.485 91.8266 358.402 91.8266H358.548C359.31 91.8266 360.069 91.6448 360.749 91.2976C361.18 91.0767 361.574 90.7839 361.91 90.4356V90.6121C361.91 91.2813 362.456 91.826 363.134 91.826H365.187V80.0139H363.134C362.459 80.0139 361.91 80.561 361.91 81.2337ZM361.319 87.6655C361.078 88.1169 360.72 88.4944 360.286 88.7554C359.85 89.0057 359.354 89.1382 358.851 89.1382H358.847C358.356 89.1382 357.873 89.0026 357.453 88.7451C357.002 88.4742 356.634 88.0855 356.39 87.6225C356.113 87.0879 355.971 86.4871 355.982 85.8755C355.968 85.2794 356.108 84.6868 356.388 84.1634C356.634 83.7142 356.997 83.3382 357.435 83.0783C357.874 82.8282 358.367 82.7032 358.86 82.7032C359.354 82.7032 359.847 82.8282 360.286 83.0779C360.736 83.3348 361.102 83.7114 361.343 84.1637C361.617 84.6996 361.754 85.3004 361.74 85.9107C361.749 86.5202 361.604 87.1271 361.319 87.6655Z" fill="#FFDF7F"/>
<path d="M315.071 78.2263C315.071 77.5884 314.611 77.0887 314.032 77.0887H312.022V80.2172H312.011C311.167 80.2172 310.483 80.901 310.483 81.7445V83.2861H312.022V88.5723C311.976 89.5738 312.36 90.5051 312.95 91.128C313.458 91.6648 314.156 91.9483 314.969 91.9483C315.849 91.9483 316.532 91.6901 316.997 91.181C317.716 90.3937 317.636 89.3036 317.633 89.2573L317.616 89.0496H316.123C315.773 89.0643 315.5 88.9777 315.33 88.8048C315.047 88.5186 315.064 88.0251 315.071 87.8145V83.2861H316.175C317.018 83.2861 317.702 82.6023 317.702 81.7589V80.2172H315.071V78.2263V78.2263V78.2263Z" fill="#FFDF7F"/>
<path d="M307.69 74.8014L303.812 72.7284C303.098 72.3465 302.24 72.3465 301.525 72.7284L297.647 74.8014C296.858 75.2233 296.365 76.0456 296.365 76.9405V80.7723C296.365 81.6672 296.858 82.4894 297.647 82.9113L298.852 83.5552L297.647 84.199C296.858 84.6209 296.365 85.4432 296.365 86.3381V90.1699C296.365 91.0648 296.858 91.887 297.647 92.3089L301.525 94.3819C302.24 94.7638 303.098 94.7638 303.812 94.3819L307.69 92.3089C308.479 91.887 308.972 91.0648 308.972 90.1699V86.3381C308.972 85.4432 308.479 84.6209 307.69 84.199L306.486 83.5552L307.69 82.9113C308.479 82.4894 308.972 81.6672 308.972 80.7723V76.9405C308.972 76.0456 308.479 75.2233 307.69 74.8014ZM305.6 89.1449C305.6 89.5611 305.371 89.9434 305.004 90.1396L303.201 91.1037C302.868 91.2813 302.469 91.2813 302.137 91.1037L300.334 90.1396C299.967 89.9434 299.738 89.5611 299.738 89.1449V87.363C299.738 86.9468 299.967 86.5645 300.334 86.3683L302.137 85.4043C302.469 85.2267 302.868 85.2267 303.201 85.4043L305.004 86.3683C305.371 86.5645 305.6 86.9468 305.6 87.363V89.1449ZM305.6 79.7473C305.6 80.1635 305.371 80.5459 305.004 80.7421L303.201 81.7061C302.868 81.8837 302.469 81.8837 302.137 81.7061L300.334 80.7421C299.967 80.5459 299.738 80.1635 299.738 79.7473V77.9654C299.738 77.5493 299.967 77.1669 300.334 76.9707L302.137 76.0067C302.469 75.8291 302.868 75.8291 303.201 76.0067L305.004 76.9707C305.371 77.1669 305.6 77.5493 305.6 77.9654V79.7473Z" fill="#FFDF7F"/>
</svg>
